<?xml version="1.0" encoding="utf-8"?>
<!-- Generator: Adobe Illustrator 21.1.0, SVG Export Plug-In . SVG Version: 6.00 Build 0)  -->
<svg version="1.1" id="Layer_1" xmlns="http://www.w3.org/2000/svg" xmlns:xlink="http://www.w3.org/1999/xlink" x="0px" y="0px"
	 viewBox="0 0 85 35" style="enable-background:new 0 0 85 35;" xml:space="preserve">
<style type="text/css">
	.st0{fill:url(#SVGID_1_);}
	.st1{fill:url(#SVGID_2_);}
	.st2{fill:url(#SVGID_3_);}
	.st3{fill:url(#SVGID_4_);}
	.st4{fill:url(#SVGID_5_);}
	.st5{fill:#FFFFFF;}
</style>
<g>
	
		<radialGradient id="SVGID_1_" cx="-119.2263" cy="-0.8677" r="20.9765" gradientTransform="matrix(1.3872 0 0 1.3872 206.6848 18.1816)" gradientUnits="userSpaceOnUse">
		<stop  offset="0" style="stop-color:#EC0F79"/>
		<stop  offset="1" style="stop-color:#F16A21"/>
	</radialGradient>
	<path class="st0" d="M45.4,33.5L34.7,16.3l9.4-15.1c0.2-0.3,0.1-0.8-0.2-1c-0.2-0.1-0.4-0.1-0.5-0.1c-0.2,0-0.3,0.2-0.4,0.3
		l-9.7,15.5c-0.1,0.2-0.1,0.5,0,0.7l10.9,17.6c0.1,0.2,0.4,0.3,0.6,0.3c0.1,0,0.3,0,0.4-0.1c0.1-0.1,0.3-0.2,0.3-0.4
		C45.5,33.9,45.5,33.7,45.4,33.5z"/>
	
		<radialGradient id="SVGID_2_" cx="-119.2263" cy="-0.8677" r="20.9765" gradientTransform="matrix(1.3872 0 0 1.3872 206.6848 18.1816)" gradientUnits="userSpaceOnUse">
		<stop  offset="0" style="stop-color:#EC0F79"/>
		<stop  offset="1" style="stop-color:#F16A21"/>
	</radialGradient>
	<path class="st1" d="M29.7,10.1c0.1,0.2,0.4,0.3,0.6,0.3c0,0,0,0,0,0c0.2,0,0.5-0.1,0.6-0.3l5.5-8.9c0.2-0.3,0.1-0.8-0.2-0.9
		c-0.3-0.2-0.8-0.1-1,0.2l-4.9,7.9l-4.9-7.9c-0.2-0.4-0.7-0.4-1-0.2c0,0,0,0,0,0c-0.3,0.2-0.4,0.6-0.2,1L29.7,10.1z"/>
	<g>
		
			<radialGradient id="SVGID_3_" cx="-119.2263" cy="-0.8677" r="20.9765" gradientTransform="matrix(1.3872 0 0 1.3872 206.6848 18.1816)" gradientUnits="userSpaceOnUse">
			<stop  offset="0" style="stop-color:#EC0F79"/>
			<stop  offset="1" style="stop-color:#F16A21"/>
		</radialGradient>
		<path class="st2" d="M49.5,0.8c0.1-0.3,0.4-0.4,0.7-0.3l34.2,16.4c0.5,0.2,0.5,0.9,0,1.2L50.2,34.4c-0.2,0.1-0.6-0.1-0.7-0.3
			c-0.1-0.3,0-0.7,0.3-0.9l33-15.8l-33-15.8C49.5,1.5,49.5,1.1,49.5,0.8z M49.5,25.3c-0.1-0.3,0-0.7,0.3-0.8l14.8-7.2l-14.8-7.1
			c-0.3-0.1-0.4-0.5-0.3-0.8S50,9,50.2,9.1l16.1,7.7c0.4,0.2,0.5,0.9,0,1.2l-16.1,7.7C50,25.8,49.6,25.7,49.5,25.3z"/>
	</g>
	
		<radialGradient id="SVGID_4_" cx="-484.7722" cy="-1.0206" r="17.9815" gradientTransform="matrix(1 0 0 1 503.5578 18.5206)" gradientUnits="userSpaceOnUse">
		<stop  offset="0" style="stop-color:#EC0F79"/>
		<stop  offset="1" style="stop-color:#F16A21"/>
	</radialGradient>
	<path class="st3" d="M27.2,26.3c-2.8,4.9-7.3,7.4-12.4,7.1c-8.6-0.5-13.1-6-13.3-12.9V0.6c0-0.3-0.3-0.5-0.6-0.5
		c-0.4,0-0.7,0.2-0.7,0.5v19.9C0.1,28,5.8,34.6,14.8,34.9c7.8,0.2,13.5-4.7,14.9-10.8l6.3,10.2c0.2,0.3,0.6,0.4,1,0.2
		c0.3-0.3,0.4-0.7,0.2-0.9c0,0-7-11.4-7-11.4c-1-0.6-1.4,0.3-1.6,0.9C28.3,24.2,27.8,25.3,27.2,26.3z"/>
	
		<radialGradient id="SVGID_5_" cx="1683.681" cy="354.7852" r="10.7776" gradientTransform="matrix(-1.4334 0 0 -0.9372 2430.3491 345.6731)" gradientUnits="userSpaceOnUse">
		<stop  offset="0" style="stop-color:#EC0F79"/>
		<stop  offset="1" style="stop-color:#F16A21"/>
	</radialGradient>
	<path class="st4" d="M25.8,15c0-0.4,0.1-0.7,0-1.1c0-0.3-0.3-0.7-0.5-1c-0.2-0.3-0.4-0.6-0.6-0.9L17.7,0.5
		c-0.1-0.2-0.2-0.3-0.4-0.3c-0.2-0.1-0.4,0-0.5,0.1c-0.3,0.2-0.4,0.6-0.2,1l7.7,12.6c0.1,0.2,0.1,0.4,0.1,0.6c-0.3,3.9-2,7-4.2,8.8
		c-1.9,1.5-4.6,1.8-6.9,1.1c-1.9-0.6-2.8-2.2-3.3-3.9c-0.4-1.3-0.6-3.8-0.7-5.2V0.6c0-0.3-0.3-0.5-0.6-0.5C8.3,0.1,8,0.4,8,0.6
		c0,0,0,14.4,0,14.5c0,2.5,0.1,5.1,1.2,7.4c1.3,2.6,4,3.7,6.8,3.7C16,26.2,24.3,27,25.8,15z"/>
</g>
<g>
	<path class="st5" d="M339.1,26.8l-28.3-45.8l24.9-40c0.4-0.9,0.3-2.1-0.7-2.6c-0.4-0.3-0.9-0.3-1.4-0.2c-0.4,0.1-0.8,0.4-1,0.8
		L307-19.9c-0.3,0.6-0.3,1.4,0,1.9L336,28.7c0.3,0.5,1,0.9,1.7,0.9c0.3,0,0.7-0.1,1-0.2c0.4-0.2,0.7-0.6,0.8-1.1
		C339.5,27.8,339.4,27.3,339.1,26.8z"/>
	<path class="st5" d="M297.5-35.5c0.4,0.5,1,0.8,1.6,0.8c0,0,0,0,0,0c0.6,0,1.3-0.3,1.6-0.8l14.6-23.6c0.5-0.8,0.2-2-0.6-2.5
		c-0.8-0.5-2-0.3-2.6,0.6l-12.9,21l-13-21c-0.6-0.9-1.9-1.1-2.6-0.6c0,0,0,0,0,0c-0.8,0.5-1.1,1.7-0.6,2.5L297.5-35.5z"/>
	<g>
		<path class="st5" d="M350.2-60.2c0.3-0.7,1.1-1.2,1.8-0.9l90.8,43.6c1.4,0.6,1.3,2.5,0,3.1L352,29.1c-0.6,0.3-1.5-0.1-1.8-0.9
			c-0.3-0.9,0-1.9,0.8-2.4L438.5-16L351-57.8C350.2-58.3,350-59.2,350.2-60.2z M350.2,5.1c-0.3-0.9,0-1.8,0.8-2.1l39.4-19L351-34.8
			c-0.8-0.3-1-1.3-0.8-2.2c0.3-0.9,1.1-1.2,1.8-0.9l42.8,20.5c1.1,0.4,1.3,2.5,0,3.1L352,6.1C351.4,6.4,350.5,6.1,350.2,5.1z"/>
	</g>
	<path class="st5" d="M219.2,76.4V59.8c0-0.7,0.6-1.3,1.3-1.3c0.7,0,1.3,0.6,1.3,1.3v16.6c0,10.7,16.3,10.7,16.3,0V59.8
		c0-0.7,0.5-1.3,1.3-1.3c0.7,0,1.3,0.6,1.3,1.3v16.6C240.6,90.4,219.2,90.3,219.2,76.4z"/>
	<path class="st5" d="M249.7,84.9l7.7-13.3L250.6,60c-0.8-1.4,1.3-2.7,2.2-1.3l7,12.3c0.3,0.4,0.3,0.8,0,1.3l-8,13.9
		C251,87.6,248.8,86.3,249.7,84.9z M272.2,60l-6.7,11.6l7.7,13.3c0.8,1.4-1.3,2.7-2.2,1.3l-8-13.9c-0.3-0.4-0.3-0.9,0-1.3l7-12.3
		C270.9,57.4,273.1,58.6,272.2,60z"/>
	<path class="st5" d="M353.7,58.5c0.6,0.3,1,1,0.7,1.7L343.5,86c-0.5,1.1-1.9,1.1-2.4,0l-10.8-25.8c-0.2-0.7,0-1.4,0.7-1.7
		c0.6-0.2,1.4,0.1,1.6,0.7l9.7,22.9l9.7-22.9C352.3,58.6,353.1,58.3,353.7,58.5z"/>
	<path class="st5" d="M411.5,58.5c-0.7,0-1.3,0.5-1.3,1.2v21.6l-14.8-22.1c-0.1-0.2-0.2-0.3-0.3-0.4c-0.2-0.2-0.5-0.4-0.9-0.4
		c-0.7,0-1.3,0.5-1.3,1.2v0c0,0,0,0,0,0.1v25.6c0,0.7,0.6,1.3,1.3,1.3c0.7,0,1.3-0.6,1.3-1.3V63.9L410.3,86c0,0,0,0,0,0
		c0.2,0.5,0.6,0.8,1.2,0.8c0.7,0,1.3-0.6,1.3-1.3V59.8C412.8,59.1,412.2,58.5,411.5,58.5z"/>
	<path class="st5" d="M442.1,58.5h-17.8c-0.7,0-1.3,0.5-1.3,1.3c0,0.7,0.6,1.3,1.3,1.3h7.6v24.5c0,0.7,0.6,1.3,1.3,1.3
		c0.7,0,1.3-0.6,1.3-1.3V61.1h7.6c0.7,0,1.2-0.6,1.2-1.3C443.3,59.1,442.8,58.5,442.1,58.5z"/>
	<g>
		<path class="st5" d="M300.8,86.7c-0.6-0.3-1-1-0.7-1.7l10.8-25.8c0.5-1.1,1.9-1.1,2.4,0L324.1,85c0.2,0.7,0,1.4-0.7,1.7
			c-0.6,0.2-1.4-0.1-1.6-0.7l-9.7-22.9L302.4,86C302.1,86.6,301.4,86.9,300.8,86.7z"/>
	</g>
	<g>
		<path class="st5" d="M361.3,86.7c-0.6-0.3-1-1-0.7-1.7l10.8-25.8c0.5-1.1,1.9-1.1,2.4,0L384.7,85c0.2,0.7,0,1.4-0.7,1.7
			c-0.6,0.2-1.4-0.1-1.6-0.7l-9.7-22.9L362.9,86C362.7,86.6,361.9,86.9,361.3,86.7z"/>
	</g>
	<path class="st5" d="M291,7.7c-7.5,12.9-19.4,19.6-33,18.7c-22.9-1.4-34.7-16-35.2-34.2v-52.8c0-0.7-0.8-1.4-1.7-1.4
		c-1.1,0-1.9,0.6-1.9,1.4v52.8c-0.2,20,14.9,37.4,38.8,38.1c20.7,0.6,35.9-12.6,39.7-28.7l16.8,27.1c0.5,0.8,1.6,1.1,2.6,0.6
		c0.8-0.7,1-1.8,0.5-2.5c0,0-18.6-30.2-18.6-30.2c-2.5-1.7-3.6,0.9-4.1,2.4C293.8,2,292.5,5,291,7.7z"/>
	<path class="st5" d="M287.1-22.3c0.1-1,0.3-2,0.1-3c-0.1-0.8-0.8-1.9-1.2-2.6c-0.5-0.8-1-1.6-1.5-2.5l-18.9-30.6
		c-0.2-0.4-0.6-0.7-1-0.9c-0.5-0.1-1-0.1-1.4,0.2c-0.8,0.5-1.1,1.7-0.6,2.6l20.6,33.3c0.2,0.4,0.3,1,0.3,1.6
		c-0.8,10.3-5.2,18.6-11.2,23.4c-5,4-12.2,4.7-18.2,2.8c-4.9-1.6-7.3-5.7-8.8-10.4c-1.1-3.6-1.6-10.2-1.8-13.9v-38.4
		c0-0.7-0.8-1.4-1.7-1.4c-1.1,0-1.9,0.6-1.9,1.4c0,0,0,38.3,0,38.4c0,6.5,0.2,13.6,3.1,19.6c3.4,7,10.6,9.8,18.1,9.8
		C261.1,7.3,283.2,9.5,287.1-22.3z"/>
</g>
</svg>
