<?xml version="1.0" encoding="UTF-8" standalone="no"?>
<svg width="32px" height="32px" viewBox="0 0 32 32" version="1.1" xmlns="http://www.w3.org/2000/svg" xmlns:xlink="http://www.w3.org/1999/xlink">
    <!-- Generator: Sketch 47.1 (45422) - http://www.bohemiancoding.com/sketch -->
    <title>twitter logo</title>
    <desc>Created with Sketch.</desc>
    <defs></defs>
    <g id="Page-1" stroke="none" stroke-width="1" fill="none" fill-rule="evenodd" opacity="0.5">
        <g id="opcion1-Copy-2" transform="translate(-638.000000, -7114.000000)" fill-rule="nonzero" fill="#000000">
            <g id="Group-8" transform="translate(638.000000, 7114.000000)">
                <g id="twitter-logo">
                    <path d="M14.8910891,0 C15.6277228,0 16.3722772,0 17.1089109,0 C17.5366337,0.0554455446 17.9722772,0.102970297 18.4,0.166336634 C25.2831683,1.22772277 30.6772277,6.55841584 31.7940594,13.4019802 C31.8732673,13.8930693 31.9287129,14.3920792 32,14.8910891 C32,15.6277228 32,16.3722772 32,17.1089109 C31.9445545,17.5287129 31.8970297,17.9485149 31.8415842,18.360396 C30.9465347,24.6019802 26.249505,29.8772277 20.1425743,31.4613861 C19.1524752,31.7148515 18.1227723,31.8257426 17.1168317,32 C16.380198,32 15.6356436,32 14.8990099,32 C14.5742574,31.960396 14.249505,31.9128713 13.9247525,31.8732673 C7.03366337,30.9782178 1.45742574,25.6792079 0.245544554,18.8673267 C0.142574257,18.2891089 0.0792079208,17.6950495 0,17.1089109 C0,16.3722772 0,15.6277228 0,14.8910891 C0.0396039604,14.5663366 0.0871287129,14.2415842 0.126732673,13.9168317 C1.03762376,6.92277228 6.43960396,1.34653465 13.4019802,0.205940594 C13.9009901,0.118811881 14.3920792,0.0633663366 14.8910891,0 Z M15.849505,13.2752475 C14.360396,13.219802 12.990099,12.839604 11.6831683,12.1980198 C10.3762376,11.5564356 9.30693069,10.6217822 8.28514851,9.52079208 C7.45346535,11.4693069 7.92079208,12.9980198 9.44158416,14.2732673 C9.41782178,14.3128713 9.4019802,14.3445545 9.37821782,14.3841584 C8.8950495,14.2811881 8.4039604,14.170297 7.84950495,14.0514851 C8,15.8811881 9.04554455,16.9267327 10.7168317,17.4811881 C10.7009901,17.5207921 10.6851485,17.5524752 10.6693069,17.5920792 C10.209901,17.639604 9.75049505,17.6871287 9.21188119,17.7425743 C9.84554455,19.2316832 10.9940594,19.9049505 12.5861386,20.1188119 C11.009901,21.3386139 9.33861386,21.7980198 7.5009901,21.7821782 C7.55643564,21.8613861 7.61188119,21.9009901 7.66732673,21.9326733 C9.80594059,23.1128713 12.0950495,23.4851485 14.4871287,23.0891089 C19.4534653,22.2574257 23.049505,17.9722772 23.049505,12.9346535 C23.049505,12.5069307 23.2,12.2376238 23.5168317,11.9683168 C23.9445545,11.6118812 24.3089109,11.1920792 24.6970297,10.7960396 C24.6732673,10.7722772 24.649505,10.7485149 24.6257426,10.7247525 C24.0633663,10.8514851 23.5009901,10.9782178 22.9306931,11.1128713 C22.9069307,11.0732673 22.8910891,11.0336634 22.8673267,10.9940594 C23.4772277,10.5425743 24,10.0356436 24.3009901,9.23564356 C23.8574257,9.41782178 23.4930693,9.56039604 23.1287129,9.71089109 C22.550495,9.94851485 22.0752475,9.94059406 21.5049505,9.4970297 C20.380198,8.61782178 19.0732673,8.57029703 17.8059406,9.21980198 C16.5465347,9.86930693 15.8732673,10.9386139 15.849505,12.380198 C15.8415842,12.6415842 15.849505,12.9346535 15.849505,13.2752475 Z" id="Shape"></path>
                </g>
            </g>
        </g>
    </g>
</svg>