<?xml version="1.0" encoding="UTF-8" standalone="no"?>
<svg width="32px" height="32px" viewBox="0 0 32 32" version="1.1" xmlns="http://www.w3.org/2000/svg" xmlns:xlink="http://www.w3.org/1999/xlink">
    <!-- Generator: Sketch 47.1 (45422) - http://www.bohemiancoding.com/sketch -->
    <title>facebook logo</title>
    <desc>Created with Sketch.</desc>
    <defs></defs>
    <g id="Page-1" stroke="none" stroke-width="1" fill="none" fill-rule="evenodd" opacity="0.5">
        <g id="opcion1-Copy-2" transform="translate(-768.000000, -7114.000000)" fill-rule="nonzero" fill="#000000">
            <g id="Group-8" transform="translate(638.000000, 7114.000000)">
                <g id="facebook-logo" transform="translate(130.000000, 0.000000)">
                    <path d="M31.9948963,14.9945774 C31.9948963,15.5712919 31.9948963,16.15311 31.9948963,16.7298246 C31.9438596,17.1483254 31.892823,17.5719298 31.84689,17.9904306 C31.6172249,20.0370016 30.9588517,21.9457735 29.96874,23.7422648 C29.0960128,25.3141946 27.9783094,26.7023923 26.630941,27.891547 C25.492823,28.9020734 24.2373206,29.7288676 22.8593301,30.3821372 C21.8181818,30.8720893 20.7362041,31.2446571 19.6133971,31.5100478 C19.6133971,27.0953748 19.6133971,22.6909091 19.6133971,18.2660287 C19.7256778,18.2660287 19.8175439,18.2660287 19.9094099,18.2660287 C20.9811802,18.2660287 22.0529506,18.260925 23.1247209,18.2711324 C23.3594896,18.276236 23.4258373,18.2047847 23.4258373,17.9700159 C23.41563,16.7196172 23.4207337,15.4692185 23.4207337,14.2188198 C23.4207337,13.8258373 23.4207337,13.8258373 23.0379585,13.8258373 C21.9559809,13.8258373 20.8791069,13.8258373 19.7971292,13.8258373 C19.6848485,13.8258373 19.5419458,13.8666667 19.5419458,13.6676236 C19.5368421,12.7489633 19.5062201,11.8251994 19.8940989,10.9575758 C20.169697,10.3400319 20.5830941,9.85518341 21.2363636,9.6 C22.0070175,9.29888357 22.7929825,9.38564593 23.5738437,9.5030303 C23.8035088,9.53875598 24.0280702,9.6 24.2577352,9.64593301 C24.2781499,9.58979266 24.2934609,9.56427432 24.2934609,9.54385965 C24.3700159,8.09952153 24.446571,6.65518341 24.523126,5.21594896 C24.5333333,5.05773525 24.4516746,5.00669856 24.3189793,4.98628389 C23.7728868,4.89441786 23.2318979,4.76682616 22.6858054,4.71068581 C20.9250399,4.53716108 19.2102073,4.6800638 17.5872408,5.48133971 C15.8162679,6.35406699 14.7036683,7.7830941 14.0759171,9.615311 C13.6421053,10.8810207 13.4889952,12.1977671 13.5196172,13.5349282 C13.5196172,13.6267943 13.5094099,13.7135566 13.5043062,13.8207337 C13.3716108,13.8207337 13.2695375,13.8207337 13.1725678,13.8207337 C12.5192982,13.8207337 11.860925,13.8207337 11.2076555,13.8207337 C11.0698565,13.8207337 10.9830941,13.8360447 10.9830941,14.0095694 C10.9881978,15.3620415 10.9881978,16.7145136 10.9830941,18.0669856 C10.9830941,18.2354067 11.0596491,18.260925 11.2025518,18.260925 C11.8507177,18.2558214 12.4937799,18.260925 13.1419458,18.260925 C13.2593301,18.260925 13.3767145,18.260925 13.5043062,18.260925 C13.5043062,22.7623604 13.5043062,27.2280702 13.5043062,31.7448166 C12.784689,31.5763955 12.0854864,31.4437002 11.4015949,31.2395534 C9.41116427,30.6424242 7.60446571,29.6727273 5.9814992,28.3763955 C4.51164274,27.1974482 3.28676236,25.7888357 2.31706539,24.1709729 C1.2861244,22.4510367 0.592025518,20.5984051 0.26539075,18.6079745 C-0.0867623604,16.5001595 -0.0153110048,14.4076555 0.464433812,12.3304625 C1.02583732,9.9062201 2.10781499,7.73205742 3.68995215,5.81307815 C5.23125997,3.94513557 7.10940989,2.49569378 9.30909091,1.47496013 C11.2791069,0.561403509 13.3511962,0.0765550239 15.5202552,0.0102073365 C17.7658692,-0.0561403509 19.9349282,0.3215311 22.0223285,1.16874003 C23.507496,1.77097289 24.8701754,2.5722488 26.1052632,3.58277512 C27.6414673,4.83827751 28.907177,6.32344498 29.8870813,8.04848485 C30.9129187,9.86028708 31.5814992,11.7894737 31.8417863,13.8564593 C31.892823,14.2392344 31.9489633,14.6169059 31.9948963,14.9945774 Z" id="Shape"></path>
                </g>
            </g>
        </g>
    </g>
</svg>