<?xml version="1.0" encoding="UTF-8" standalone="no"?>
<svg width="32px" height="32px" viewBox="0 0 32 32" version="1.1" xmlns="http://www.w3.org/2000/svg" xmlns:xlink="http://www.w3.org/1999/xlink">
    <!-- Generator: Sketch 47.1 (45422) - http://www.bohemiancoding.com/sketch -->
    <title>linkdn logo</title>
    <desc>Created with Sketch.</desc>
    <defs></defs>
    <g id="Page-1" stroke="none" stroke-width="1" fill="none" fill-rule="evenodd" opacity="0.5">
        <g id="opcion1-Copy-2" transform="translate(-703.000000, -7114.000000)" fill-rule="nonzero" fill="#000000">
            <g id="Group-8" transform="translate(638.000000, 7114.000000)">
                <g id="linkdn-logo" transform="translate(65.000000, 0.000000)">
                    <path d="M16.0278261,8.4700923e-16 C24.7930435,-0.0139130435 31.8886957,7.06782609 31.9304348,15.8608696 C31.9582609,24.6817391 24.8904348,31.7913043 16.0556522,31.7913043 C7.24869565,31.8052174 0.111304348,24.6678261 0.139130435,15.8886957 C0.166956522,7.09565217 7.24869565,0.0139130435 16.0278261,8.4700923e-16 Z M17.613913,23.4295652 C17.613913,23.1095652 17.613913,22.8591304 17.613913,22.6086957 C17.613913,20.8278261 17.6,19.0469565 17.613913,17.2521739 C17.6278261,16.0556522 18.4347826,15.2347826 19.533913,15.2208696 C20.6191304,15.2069565 21.2452174,15.9026087 21.3147826,17.1686957 C21.3286957,17.4747826 21.3286957,17.7669565 21.3286957,18.0730435 C21.3286957,19.6730435 21.3147826,21.2730435 21.3426087,22.8730435 C21.3426087,23.0678261 21.5373913,23.4156522 21.6486957,23.4295652 C22.7478261,23.4713043 23.8469565,23.4573913 24.946087,23.4573913 C24.946087,20.9113043 25.0573913,18.4486957 24.9043478,16 C24.8069565,14.3304348 23.9304348,12.9808696 22.2052174,12.48 C20.5217391,11.9930435 18.9913043,12.2434783 17.8086957,13.6765217 C17.7808696,13.7182609 17.6973913,13.7182609 17.586087,13.746087 C17.586087,13.3426087 17.586087,12.9808696 17.586087,12.5913043 C16.3478261,12.5913043 15.1652174,12.5913043 13.9965217,12.5913043 C13.9965217,16.2365217 13.9965217,19.8121739 13.9965217,23.4156522 C15.2069565,23.4295652 16.3617391,23.4295652 17.613913,23.4295652 Z M8.38956522,23.4573913 C9.51652174,23.4573913 10.56,23.4713043 11.5895652,23.4434783 C11.7426087,23.4434783 12.0208696,23.1652174 12.0208696,23.0121739 C12.0486957,19.6730435 12.0486957,16.3478261 12.0208696,13.0086957 C12.0208696,12.8556522 11.7982609,12.5773913 11.6730435,12.5634783 C10.5878261,12.5217391 9.51652174,12.5495652 8.38956522,12.5495652 C8.38956522,16.2086957 8.38956522,19.7843478 8.38956522,23.4573913 Z M10.1426087,11.1026087 C11.3947826,11.1165217 12.2573913,10.3373913 12.2573913,9.21043478 C12.2573913,8.0973913 11.4226087,7.29043478 10.24,7.27652174 C9.04347826,7.2626087 8.12521739,8.08347826 8.12521739,9.1826087 C8.11130435,10.2956522 8.94608696,11.0886957 10.1426087,11.1026087 Z" id="Shape"></path>
                </g>
            </g>
        </g>
    </g>
</svg>