<?xml version="1.0" encoding="utf-8"?>
<!-- Generator: Adobe Illustrator 21.1.0, SVG Export Plug-In . SVG Version: 6.00 Build 0)  -->
<svg version="1.1" id="Layer_1" xmlns="http://www.w3.org/2000/svg" xmlns:xlink="http://www.w3.org/1999/xlink" x="0px" y="0px"
	 viewBox="0 0 345 55.6" style="enable-background:new 0 0 345 55.6;" xml:space="preserve">
<style type="text/css">
	.st0{fill:#DCDDDE;}
</style>
<g>
	<g>
		<polygon class="st0" points="103.7,45.9 100.5,45.9 100.5,6.2 103.4,5.2 119.6,26.4 135.5,5.2 138.4,6.2 138.4,30.6 135.1,30.6 
			135.1,11.1 121,30.1 118.4,30.1 103.7,11 		"/>
	</g>
	<g>
		<polygon class="st0" points="341.5,6.2 331,6.2 324,17.5 317,6.2 306.5,6.2 318.6,26.3 306.5,45.9 317.7,45.9 324,35.3 
			330.3,45.9 341.5,45.9 329.4,26.3 		"/>
	</g>
	<path class="st0" d="M33.6,41.2c-0.9,1.3-2.5,2.5-4.9,3.6c-2.4,1.1-5.3,1.7-8.9,1.7c-4.6,0-8.4-1.6-11.3-4.7
		c-3-3.1-4.4-7.2-4.4-12.2v-7.3c0-4.9,1.4-8.9,4.2-12c2.8-3.1,6.4-4.6,10.9-4.6c4.3,0,7.6,1.1,10,3.2c2.4,2.1,3.8,4.9,4.2,8.3
		l-0.1,0.2h-3c-0.5-2.7-1.6-4.8-3.4-6.4c-1.8-1.6-4.4-2.5-7.8-2.5c-3.6,0-6.4,1.3-8.6,3.9c-2.2,2.6-3.3,5.9-3.3,9.9v7.3
		c0,4.1,1.2,7.5,3.5,10.2c2.3,2.6,5.3,4,9,4c2.6,0,4.9-0.4,6.7-1.1c1.8-0.7,3.1-1.5,3.8-2.4V29.8H19.8V27h13.8V41.2z"/>
	<path class="st0" d="M76,34.8H57.8l-4.1,11.1h-3.4L65.4,6.2h3.1l15,39.7h-3.4L76,34.8z M58.9,31.9h16L67,10.4h-0.2L58.9,31.9z"/>
	<path class="st0" d="M236.7,34.8h-18.2l-4.1,11.1h-3.4l15.1-39.7h3.1l15,39.7h-3.4L236.7,34.8z M219.6,31.9h16l-7.9-21.5h-0.2
		L219.6,31.9z"/>
	<path class="st0" d="M291.9,6.2v26c0,4.5-1.5,8-4.5,10.5c-3,2.5-6.9,3.7-11.8,3.7c-4.9,0-8.9-1.2-11.9-3.7c-3-2.5-4.5-6-4.5-10.5
		v-26h9.2v26c0,2.4,0.6,4.2,1.9,5.4c1.3,1.2,3,1.8,5.3,1.8c2.3,0,4-0.6,5.2-1.7c1.2-1.2,1.8-3,1.8-5.4v-26H291.9z"/>
	<g>
		<polygon class="st0" points="193.2,45.9 190,45.9 190,11 175.3,30.1 172.7,30.1 155.6,7.2 158.2,5.2 174.1,26.4 190.3,5.2 
			193.2,6.2 		"/>
	</g>
	<g>
		<rect x="155.3" y="30.6" class="st0" width="3.3" height="15.9"/>
	</g>
</g>
</svg>
