<?xml version="1.0" encoding="utf-8"?>
<!-- Generator: Adobe Illustrator 21.1.0, SVG Export Plug-In . SVG Version: 6.00 Build 0)  -->
<svg version="1.1" id="Layer_1" xmlns="http://www.w3.org/2000/svg" xmlns:xlink="http://www.w3.org/1999/xlink" x="0px" y="0px"
	 viewBox="0 0 230 152" style="enable-background:new 0 0 230 152;" xml:space="preserve">
<style type="text/css">
	.st0{fill:url(#SVGID_1_);}
	.st1{fill:url(#SVGID_2_);}
	.st2{fill:url(#SVGID_3_);}
	.st3{fill:url(#SVGID_4_);}
	.st4{fill:url(#SVGID_5_);}
	.st5{fill:#FFFFFF;}
</style>
<g>
	<path class="st5" d="M122.6,90.3L94.3,44.6l24.9-40c0.4-0.9,0.3-2.1-0.7-2.6c-0.4-0.3-0.9-0.3-1.4-0.2c-0.4,0.1-0.8,0.4-1,0.8
		L90.5,43.6c-0.3,0.6-0.3,1.4,0,1.9l28.9,46.7c0.3,0.5,1,0.9,1.7,0.9c0.3,0,0.7-0.1,1-0.2c0.4-0.2,0.7-0.6,0.8-1.1
		C123,91.3,122.9,90.8,122.6,90.3z"/>
	<path class="st5" d="M81,28c0.4,0.5,1,0.8,1.6,0.8c0,0,0,0,0,0c0.6,0,1.3-0.3,1.6-0.8L98.8,4.4c0.5-0.8,0.2-2-0.6-2.5
		c-0.8-0.5-2-0.3-2.6,0.6l-12.9,21l-13-21C69,1.6,67.8,1.4,67,1.9c0,0,0,0,0,0c-0.8,0.5-1.1,1.7-0.6,2.5L81,28z"/>
	<g>
		<path class="st5" d="M133.7,3.3c0.3-0.7,1.1-1.2,1.8-0.9L226.3,46c1.4,0.6,1.3,2.5,0,3.1l-90.8,43.5c-0.6,0.3-1.5-0.1-1.8-0.9
			c-0.3-0.9,0-1.9,0.8-2.4L222,47.5L134.5,5.7C133.7,5.2,133.5,4.3,133.7,3.3z M133.7,68.6c-0.3-0.9,0-1.8,0.8-2.1l39.4-19
			l-39.4-18.9c-0.8-0.3-1-1.3-0.8-2.2c0.3-0.9,1.1-1.2,1.8-0.9L178.3,46c1.1,0.4,1.3,2.5,0,3.1l-42.8,20.5
			C134.9,69.9,134,69.6,133.7,68.6z"/>
	</g>
	<path class="st5" d="M2.7,139.9v-16.6c0-0.7,0.6-1.3,1.3-1.3c0.7,0,1.3,0.6,1.3,1.3v16.6c0,10.7,16.3,10.7,16.3,0v-16.6
		c0-0.7,0.5-1.3,1.3-1.3c0.7,0,1.3,0.6,1.3,1.3v16.6C24.1,153.9,2.7,153.8,2.7,139.9z"/>
	<path class="st5" d="M33.2,148.4l7.7-13.3l-6.7-11.6c-0.8-1.4,1.3-2.7,2.2-1.3l7,12.3c0.3,0.4,0.3,0.8,0,1.3l-8,13.9
		C34.5,151.1,32.3,149.8,33.2,148.4z M55.7,123.5L49,135.1l7.7,13.3c0.8,1.4-1.3,2.7-2.2,1.3l-8-13.9c-0.3-0.4-0.3-0.9,0-1.3l7-12.3
		C54.4,120.9,56.6,122.1,55.7,123.5z"/>
	<path class="st5" d="M137.2,122c0.6,0.3,1,1,0.7,1.7L127,149.5c-0.5,1.1-1.9,1.1-2.4,0l-10.8-25.8c-0.2-0.7,0-1.4,0.7-1.7
		c0.6-0.2,1.4,0.1,1.6,0.7l9.7,22.9l9.7-22.9C135.8,122.1,136.6,121.8,137.2,122z"/>
	<path class="st5" d="M195,122c-0.7,0-1.3,0.5-1.3,1.2v21.6l-14.8-22.1c-0.1-0.2-0.2-0.3-0.3-0.4c-0.2-0.2-0.5-0.4-0.9-0.4
		c-0.7,0-1.3,0.5-1.3,1.2v0c0,0,0,0,0,0.1V149c0,0.7,0.6,1.3,1.3,1.3c0.7,0,1.3-0.6,1.3-1.3v-21.6l14.8,22.1c0,0,0,0,0,0
		c0.2,0.5,0.6,0.8,1.2,0.8c0.7,0,1.3-0.6,1.3-1.3v-25.8C196.3,122.6,195.7,122,195,122z"/>
	<path class="st5" d="M225.6,122h-17.8c-0.7,0-1.3,0.5-1.3,1.3c0,0.7,0.6,1.3,1.3,1.3h7.6V149c0,0.7,0.6,1.3,1.3,1.3
		c0.7,0,1.3-0.6,1.3-1.3v-24.5h7.6c0.7,0,1.2-0.6,1.2-1.3C226.8,122.6,226.3,122,225.6,122z"/>
	<g>
		<path class="st5" d="M84.3,150.2c-0.6-0.3-1-1-0.7-1.7l10.8-25.8c0.5-1.1,1.9-1.1,2.4,0l10.8,25.8c0.2,0.7,0,1.4-0.7,1.7
			c-0.6,0.2-1.4-0.1-1.6-0.7l-9.7-22.9l-9.7,22.9C85.6,150.1,84.9,150.4,84.3,150.2z"/>
	</g>
	<g>
		<path class="st5" d="M144.8,150.2c-0.6-0.3-1-1-0.7-1.7l10.8-25.8c0.5-1.1,1.9-1.1,2.4,0l10.8,25.8c0.2,0.7,0,1.4-0.7,1.7
			c-0.6,0.2-1.4-0.1-1.6-0.7l-9.7-22.9l-9.7,22.9C146.2,150.1,145.4,150.4,144.8,150.2z"/>
	</g>
	<path class="st5" d="M74.5,71.2c-7.5,12.9-19.4,19.6-33,18.7c-22.9-1.4-34.7-16-35.2-34.2V3c0-0.7-0.8-1.4-1.7-1.4
		C3.5,1.6,2.7,2.2,2.7,3v52.8c-0.2,20,14.9,37.4,38.8,38.1c20.7,0.6,35.9-12.6,39.7-28.7L98,92.4c0.5,0.8,1.6,1.1,2.6,0.6
		c0.8-0.7,1-1.8,0.5-2.5c0,0-18.6-30.2-18.6-30.2c-2.5-1.7-3.6,0.9-4.1,2.4C77.3,65.5,76,68.5,74.5,71.2z"/>
	<path class="st5" d="M70.6,41.2c0.1-1,0.3-2,0.1-3c-0.1-0.8-0.8-1.9-1.2-2.6c-0.5-0.8-1-1.6-1.5-2.5L49,2.6c-0.2-0.4-0.6-0.7-1-0.9
		c-0.5-0.1-1-0.1-1.4,0.2c-0.8,0.5-1.1,1.7-0.6,2.6l20.6,33.3c0.2,0.4,0.3,1,0.3,1.6C66.2,49.8,61.7,58,55.7,62.9
		c-5,4-12.2,4.7-18.2,2.8c-4.9-1.6-7.3-5.7-8.8-10.4c-1.1-3.6-1.6-10.2-1.8-13.9V3c0-0.7-0.8-1.4-1.7-1.4c-1.1,0-1.9,0.6-1.9,1.4
		c0,0,0,38.3,0,38.4c0,6.5,0.2,13.6,3.1,19.6c3.4,7,10.6,9.8,18.1,9.8C44.6,70.8,66.7,73,70.6,41.2z"/>
</g>
</svg>
